<svg width="96" height="96" viewBox="0 0 96 96" fill="none" xmlns="http://www.w3.org/2000/svg">
<g filter="url(#filter0_d_1719_3263)">
<path fill-rule="evenodd" clip-rule="evenodd" d="M48 80C70.0914 80 88 62.0914 88 40C88 17.9086 70.0914 0 48 0C25.9086 0 8 17.9086 8 40C8 62.0914 25.9086 80 48 80ZM55.202 20.0026C58.892 20.6398 62.4212 21.7524 65.7124 23.2625C65.7409 23.2748 65.7652 23.2953 65.7795 23.3239C71.6107 31.9009 74.4907 41.5761 73.414 52.7144C73.41 52.7615 73.3855 52.8046 73.3468 52.8332C68.9302 56.0767 64.6519 58.0458 60.4327 59.351C60.3655 59.3715 60.2923 59.3469 60.2516 59.2895C59.2767 57.9331 58.3913 56.5029 57.6159 55.001C57.5711 54.9129 57.6118 54.8064 57.7033 54.7716C59.1097 54.2409 60.447 53.6057 61.7333 52.8538C61.8351 52.7943 61.8412 52.6488 61.7476 52.5791C61.4748 52.3763 61.2041 52.1632 60.9456 51.9501C60.8968 51.9112 60.8316 51.903 60.7767 51.9296C52.4257 55.7879 43.2769 55.7879 34.8263 51.9296C34.7713 51.905 34.7062 51.9132 34.6594 51.9522C34.4009 52.1652 34.1302 52.3763 33.8595 52.5791C33.7659 52.6488 33.774 52.7943 33.8758 52.8538C35.1621 53.5914 36.4993 54.2409 37.9037 54.7736C37.9953 54.8084 38.038 54.9129 37.9932 55.001C37.2341 56.505 36.3487 57.9352 35.3555 59.2916C35.3127 59.3469 35.2415 59.3715 35.1743 59.351C30.9755 58.0458 26.6972 56.0767 22.2806 52.8332C22.2439 52.8046 22.2175 52.7595 22.2134 52.7124C21.3138 43.0781 23.1476 33.3229 29.8418 23.3219C29.858 23.2953 29.8825 23.2748 29.911 23.2625C33.2041 21.7503 36.7334 20.6377 40.4214 20.0026C40.4886 19.9923 40.5557 20.0231 40.5903 20.0825C41.0463 20.8897 41.5673 21.9245 41.9194 22.7707C45.8069 22.1765 49.7554 22.1765 53.7243 22.7707C54.0764 21.9429 54.5791 20.8897 55.033 20.0825C55.0676 20.021 55.1348 19.9903 55.202 20.0026ZM34.6146 41.6418C34.6146 44.5103 36.711 46.8461 39.2552 46.8461C41.84 46.8461 43.8957 44.5103 43.8957 41.6418C43.9364 38.7937 41.8604 36.4374 39.2552 36.4374C36.6703 36.4374 34.6146 38.7732 34.6146 41.6418ZM51.7724 41.6418C51.7724 44.5103 53.8688 46.8461 56.4129 46.8461C59.0182 46.8461 61.0535 44.5103 61.0535 41.6418C61.0942 38.7937 59.0182 36.4374 56.4129 36.4374C53.8281 36.4374 51.7724 38.7732 51.7724 41.6418Z" fill="white"/>
</g>
<defs>
<filter id="filter0_d_1719_3263" x="0" y="0" width="96" height="96" filterUnits="userSpaceOnUse" color-interpolation-filters="sRGB">
<feFlood flood-opacity="0" result="BackgroundImageFix"/>
<feColorMatrix in="SourceAlpha" type="matrix" values="0 0 0 0 0 0 0 0 0 0 0 0 0 0 0 0 0 0 127 0" result="hardAlpha"/>
<feOffset dy="8"/>
<feGaussianBlur stdDeviation="4"/>
<feComposite in2="hardAlpha" operator="out"/>
<feColorMatrix type="matrix" values="0 0 0 0 0 0 0 0 0 0 0 0 0 0 0 0 0 0 0.25 0"/>
<feBlend mode="normal" in2="BackgroundImageFix" result="effect1_dropShadow_1719_3263"/>
<feBlend mode="normal" in="SourceGraphic" in2="effect1_dropShadow_1719_3263" result="shape"/>
</filter>
</defs>
</svg>
